<?xml version="1.0" encoding="utf-8"?>
<!-- Generator: Adobe Illustrator 19.2.1, SVG Export Plug-In . SVG Version: 6.00 Build 0)  -->
<svg version="1.1" id="Layer_1" xmlns="http://www.w3.org/2000/svg" xmlns:xlink="http://www.w3.org/1999/xlink" x="0px" y="0px"
	 viewBox="0 0 313.6 313.6" style="enable-background:new 0 0 313.6 313.6;" xml:space="preserve">
<style type="text/css">
	.st0{fill:none;stroke:#1D1D1B;stroke-miterlimit:10;}
	.st1{fill:none;}
	.st2{fill:#FFFFFF;}
  .hide2{stroke:#FFFFFF; transition: all 1s ease;}
  .line{fill:none;stroke:#1D1D1B;stroke-miterlimit:10; transition: all 1s ease;}
  .internal{fill:#FFFFFF; transition: all 1s ease;}
</style>
<g id="g2">
	<line class="hide2" x1="256.8" y1="106.8" x2="256.8" y2="206.8"/>
	<g>
		<line class="st1" x1="306.8" y1="156.8" x2="306.8" y2="206.8"/>
		<g>
			<line class="st0" x1="306.8" y1="156.8" x2="306.8" y2="206.8"/>
			<g>
				<circle class="st2" cx="306.8" cy="156.8" r="6.8"/>
				<g>
					<circle class="st2" cx="306.8" cy="156.8" r="3.8"/>
					<path d="M302.5,156.8c0,2.4,1.9,4.3,4.3,4.3s4.3-1.9,4.3-4.3c0-2.4-1.9-4.3-4.3-4.3S302.5,154.5,302.5,156.8L302.5,156.8
						L302.5,156.8z M310.1,156.8c0,1.8-1.5,3.3-3.3,3.3s-3.3-1.5-3.3-3.3s1.5-3.3,3.3-3.3S310.1,155,310.1,156.8L310.1,156.8
						L310.1,156.8z"/>
				</g>
			</g>
			<g>
				<circle class="st2" cx="306.8" cy="206.8" r="6.8"/>
				<g>
					<circle class="st2" cx="306.8" cy="206.8" r="3.8"/>
					<path d="M302.5,206.8c0-2.4,1.9-4.3,4.3-4.3s4.3,1.9,4.3,4.3c0,2.4-1.9,4.3-4.3,4.3S302.5,209.2,302.5,206.8L302.5,206.8
						L302.5,206.8z M310.1,206.8c0-1.8-1.5-3.3-3.3-3.3s-3.3,1.5-3.3,3.3s1.5,3.3,3.3,3.3S310.1,208.6,310.1,206.8L310.1,206.8
						L310.1,206.8z"/>
				</g>
			</g>
		</g>
	</g>
	<g>
		<line class="st1" x1="306.8" y1="106.8" x2="306.8" y2="156.8"/>
		<g>
			<line class="st0" x1="306.8" y1="106.8" x2="306.8" y2="156.8"/>
			<g>
				<circle class="st2" cx="306.8" cy="106.8" r="6.8"/>
				<g>
					<circle class="st2" cx="306.8" cy="106.8" r="3.8"/>
					<path d="M302.5,106.8c0,2.4,1.9,4.3,4.3,4.3s4.3-1.9,4.3-4.3s-1.9-4.3-4.3-4.3S302.5,104.5,302.5,106.8L302.5,106.8
						L302.5,106.8z M310.1,106.8c0,1.8-1.5,3.3-3.3,3.3s-3.3-1.5-3.3-3.3s1.5-3.3,3.3-3.3S310.1,105,310.1,106.8L310.1,106.8
						L310.1,106.8z"/>
				</g>
			</g>
			<g>
				<circle class="st2" cx="306.8" cy="156.8" r="6.8"/>
				<path d="M302.5,156.8c0-2.4,1.9-4.3,4.3-4.3s4.3,1.9,4.3,4.3c0,2.4-1.9,4.3-4.3,4.3S302.5,159.2,302.5,156.8L302.5,156.8
					L302.5,156.8z"/>
			</g>
		</g>
	</g>
	<g>
		<line class="st1" x1="206.8" y1="156.8" x2="206.8" y2="206.8"/>
		<g>
			<line class="st0" x1="206.8" y1="156.8" x2="206.8" y2="206.8"/>
			<g>
				<circle class="st2" cx="206.8" cy="156.8" r="6.8"/>
				<g>
					<circle class="st2" cx="206.8" cy="156.8" r="3.8"/>
					<path d="M202.5,156.8c0,2.4,1.9,4.3,4.3,4.3c2.4,0,4.3-1.9,4.3-4.3c0-2.4-1.9-4.3-4.3-4.3S202.5,154.5,202.5,156.8L202.5,156.8
						L202.5,156.8z M210.1,156.8c0,1.8-1.5,3.3-3.3,3.3s-3.3-1.5-3.3-3.3s1.5-3.3,3.3-3.3S210.1,155,210.1,156.8L210.1,156.8
						L210.1,156.8z"/>
				</g>
			</g>
			<g>
				<circle class="st2" cx="206.8" cy="206.8" r="6.8"/>
				<g>
					<circle class="st2" cx="206.8" cy="206.8" r="3.8"/>
					<path d="M202.5,206.8c0-2.4,1.9-4.3,4.3-4.3c2.4,0,4.3,1.9,4.3,4.3c0,2.4-1.9,4.3-4.3,4.3S202.5,209.2,202.5,206.8L202.5,206.8
						L202.5,206.8z M210.1,206.8c0-1.8-1.5-3.3-3.3-3.3s-3.3,1.5-3.3,3.3s1.5,3.3,3.3,3.3S210.1,208.6,210.1,206.8L210.1,206.8
						L210.1,206.8z"/>
				</g>
			</g>
		</g>
	</g>
	<g>
		<line class="st1" x1="206.8" y1="106.8" x2="206.8" y2="156.8"/>
		<g>
			<line class="st0" x1="206.8" y1="106.8" x2="206.8" y2="156.8"/>
			<g>
				<circle class="st2" cx="206.8" cy="106.8" r="6.8"/>
				<g>
					<circle class="st2" cx="206.8" cy="106.8" r="3.8"/>
					<path d="M202.5,106.8c0,2.4,1.9,4.3,4.3,4.3c2.4,0,4.3-1.9,4.3-4.3s-1.9-4.3-4.3-4.3S202.5,104.5,202.5,106.8L202.5,106.8
						L202.5,106.8z M210.1,106.8c0,1.8-1.5,3.3-3.3,3.3s-3.3-1.5-3.3-3.3s1.5-3.3,3.3-3.3S210.1,105,210.1,106.8L210.1,106.8
						L210.1,106.8z"/>
				</g>
			</g>
			<g>
				<circle class="st2" cx="206.8" cy="156.8" r="6.8"/>
				<path d="M202.5,156.8c0-2.4,1.9-4.3,4.3-4.3c2.4,0,4.3,1.9,4.3,4.3c0,2.4-1.9,4.3-4.3,4.3S202.5,159.2,202.5,156.8L202.5,156.8
					L202.5,156.8z"/>
			</g>
		</g>
	</g>
	<g>
		<line class="st1" x1="206.8" y1="106.8" x2="256.8" y2="206.8"/>
		<g>
			<line class="st0" x1="206.8" y1="106.8" x2="256.8" y2="206.8"/>
			<g>
				<path class="st2" d="M210.6,104.9l2.4,4.8c-1.3,2.9-4.5,4.5-7.6,3.8l-2.4-4.8L210.6,104.9z"/>
				<g>
					
						<ellipse transform="matrix(0.8944 -0.4473 0.4473 0.8944 -25.931 103.7889)" class="st2" cx="206.8" cy="106.8" rx="3.8" ry="3.8"/>
					<path d="M203,108.7c1.1,2.1,3.6,3,5.7,1.9c2.1-1.1,3-3.6,1.9-5.7s-3.6-3-5.7-1.9C202.8,104,201.9,106.6,203,108.7L203,108.7
						L203,108.7z M209.7,105.4c0.8,1.6,0.2,3.6-1.5,4.4c-1.6,0.8-3.6,0.2-4.4-1.5c-0.8-1.6-0.2-3.6,1.5-4.4l0,0
						C207,103.1,208.9,103.8,209.7,105.4L209.7,105.4z"/>
				</g>
			</g>
			<g>
				<path class="st2" d="M260.6,204.9l-2.4-4.8c-3.1-0.7-6.3,0.9-7.6,3.8l2.4,4.8L260.6,204.9z"/>
				<g>
					
						<ellipse transform="matrix(0.8944 -0.4473 0.4473 0.8944 -65.3791 136.7166)" class="st2" cx="256.8" cy="206.8" rx="3.8" ry="3.8"/>
					<path d="M253,208.7c-1-2.1-0.2-4.7,1.9-5.7c2.1-1,4.7-0.2,5.7,1.9c1,2.1,0.2,4.7-1.9,5.7C256.6,211.7,254.1,210.8,253,208.7
						L253,208.7L253,208.7z M259.7,205.4c-0.8-1.6-2.8-2.3-4.4-1.5s-2.3,2.8-1.5,4.4c0.8,1.6,2.8,2.3,4.4,1.5l0,0
						C259.9,208.9,260.5,207,259.7,205.4L259.7,205.4z"/>
				</g>
			</g>
		</g>
	</g>
</g>
<g id="g1">
	<g>
		<line class="st1" x1="6.8" y1="156.8" x2="6.8" y2="206.8"/>
		<g>
			<line class="st0" x1="6.8" y1="156.8" x2="6.8" y2="206.8"/>
			<g>
				<circle class="st2" cx="6.8" cy="156.8" r="6.8"/>
				<g>
					<circle class="st2" cx="6.8" cy="156.8" r="3.8"/>
					<path d="M2.6,156.8c0,2.4,1.9,4.3,4.3,4.3s4.3-1.9,4.3-4.3c0-2.4-1.9-4.3-4.3-4.3S2.6,154.5,2.6,156.8L2.6,156.8L2.6,156.8z
						 M10.1,156.8c0,1.8-1.5,3.3-3.3,3.3s-3.3-1.5-3.3-3.3s1.5-3.3,3.3-3.3S10.1,155,10.1,156.8L10.1,156.8L10.1,156.8z"/>
				</g>
			</g>
			<g>
				<circle class="st2" cx="6.8" cy="206.8" r="6.8"/>
				<g>
					<circle class="st2" cx="6.8" cy="206.8" r="3.8"/>
					<path d="M2.6,206.8c0-2.4,1.9-4.3,4.3-4.3s4.3,1.9,4.3,4.3c0,2.4-1.9,4.3-4.3,4.3S2.6,209.2,2.6,206.8L2.6,206.8L2.6,206.8z
						 M10.1,206.8c0-1.8-1.5-3.3-3.3-3.3s-3.3,1.5-3.3,3.3s1.5,3.3,3.3,3.3S10.1,208.6,10.1,206.8L10.1,206.8L10.1,206.8z"/>
				</g>
			</g>
		</g>
	</g>
	<g>
		<line class="st1" x1="6.8" y1="106.8" x2="6.8" y2="156.8"/>
		<g>
			<line class="st0" x1="6.8" y1="106.8" x2="6.8" y2="156.8"/>
			<g>
				<path class="st2" d="M11.1,106.8v5.3c-2.5,2-6,2-8.5,0v-5.3H11.1z"/>
				<g>
					<circle class="st2" cx="6.8" cy="106.8" r="3.8"/>
					<path d="M2.6,106.8c0,2.4,1.9,4.3,4.3,4.3s4.3-1.9,4.3-4.3s-1.9-4.3-4.3-4.3S2.6,104.5,2.6,106.8L2.6,106.8L2.6,106.8z
						 M10.1,106.8c0,1.8-1.5,3.3-3.3,3.3s-3.3-1.5-3.3-3.3s1.5-3.3,3.3-3.3S10.1,105,10.1,106.8L10.1,106.8L10.1,106.8z"/>
				</g>
			</g>
			<g>
				<path class="st2" d="M11.1,156.8v-5.3c-2.5-2-6-2-8.5,0v5.3H11.1z"/>
				<path d="M2.6,156.8c0-2.4,1.9-4.3,4.3-4.3s4.3,1.9,4.3,4.3c0,2.4-1.9,4.3-4.3,4.3S2.6,159.2,2.6,156.8L2.6,156.8L2.6,156.8z"/>
			</g>
		</g>
	</g>
	<g>
		<line class="st1" x1="56.8" y1="156.8" x2="6.8" y2="206.8"/>
		<g>
			<line class="st0" x1="56.8" y1="156.8" x2="6.8" y2="206.8"/>
			<g>
				
					<ellipse transform="matrix(0.7071 -0.7071 0.7071 0.7071 -94.2482 86.0895)" class="st2" cx="56.8" cy="156.8" rx="6.8" ry="6.8"/>
				<path d="M53.8,153.8c-1.7,1.7-1.7,4.4,0,6c1.7,1.7,4.4,1.7,6,0c1.7-1.7,1.7-4.4,0-6l0,0C58.1,152.2,55.5,152.2,53.8,153.8
					L53.8,153.8z"/>
			</g>
			<g>
				
					<ellipse transform="matrix(0.7071 -0.7071 0.7071 0.7071 -144.248 65.3783)" class="st2" cx="6.8" cy="206.8" rx="6.8" ry="6.8"/>
				<g>
					
						<ellipse transform="matrix(0.7071 -0.7071 0.7071 0.7071 -144.248 65.3783)" class="internal hide" cx="6.8" cy="206.8" rx="3.8" ry="3.8"/>
					<path d="M3.8,203.8c1.7-1.7,4.4-1.7,6,0c1.7,1.7,1.7,4.4,0,6c-1.7,1.7-4.4,1.7-6,0l0,0C2.2,208.1,2.2,205.5,3.8,203.8
						L3.8,203.8z M9.1,209.1c1.3-1.3,1.3-3.3,0-4.6s-3.3-1.3-4.6,0s-1.3,3.3,0,4.6l0,0C5.8,210.4,7.9,210.4,9.1,209.1L9.1,209.1z"/>
				</g>
			</g>
		</g>
	</g>
	<g>
		<line class="st1" x1="56.8" y1="106.8" x2="56.8" y2="106.8"/>
		<g>
			<line class="st0" x1="56.8" y1="106.8" x2="56.8" y2="106.8"/>
			<g>
				<circle class="st2" cx="56.8" cy="106.8" r="6.8"/>
				<g>
					<circle class="st2" cx="56.8" cy="106.8" r="3.8"/>
					<path d="M56.8,111.1c2.4,0,4.3-1.9,4.3-4.3s-1.9-4.3-4.3-4.3c-2.4,0-4.3,1.9-4.3,4.3S54.5,111.1,56.8,111.1L56.8,111.1
						L56.8,111.1z M56.8,103.6c1.8,0,3.3,1.5,3.3,3.3s-1.5,3.3-3.3,3.3s-3.3-1.5-3.3-3.3S55,103.6,56.8,103.6L56.8,103.6L56.8,103.6
						z"/>
				</g>
			</g>
		</g>
	</g>
	<g>
		<line class="st1" x1="106.8" y1="106.8" x2="106.8" y2="156.8"/>
		<g>
			<line class="st0" x1="106.8" y1="106.8" x2="106.8" y2="156.8"/>
			<g>
				<path class="st2" d="M111.1,106.8v5.3c-2.5,2-6,2-8.5,0v-5.3H111.1z"/>
				<g>
					<circle class="st2" cx="106.8" cy="106.8" r="3.8"/>
					<path d="M102.5,106.8c0,2.4,1.9,4.3,4.3,4.3s4.3-1.9,4.3-4.3s-1.9-4.3-4.3-4.3S102.5,104.5,102.5,106.8L102.5,106.8
						L102.5,106.8z M110.1,106.8c0,1.8-1.5,3.3-3.3,3.3s-3.3-1.5-3.3-3.3s1.5-3.3,3.3-3.3S110.1,105,110.1,106.8L110.1,106.8
						L110.1,106.8z"/>
				</g>
			</g>
			<g>
				<path class="st2" d="M111.1,156.8v-5.3c-2.5-2-6-2-8.5,0v5.3H111.1z"/>
				<path d="M102.5,156.8c0-2.4,1.9-4.3,4.3-4.3s4.3,1.9,4.3,4.3c0,2.4-1.9,4.3-4.3,4.3S102.5,159.2,102.5,156.8L102.5,156.8
					L102.5,156.8z"/>
			</g>
		</g>
	</g>
	<g>
		<line class="st1" x1="106.8" y1="206.8" x2="106.8" y2="206.8"/>
		<g>
			<line class="st0" x1="106.8" y1="206.8" x2="106.8" y2="206.8"/>
			<g>
				<circle class="st2" cx="106.8" cy="206.8" r="6.8"/>
				<g>
					<circle class="internal hide" cx="106.8" cy="206.8" r="3.8"/>
					<path d="M106.8,202.5c-2.4,0-4.3,1.9-4.3,4.3c0,2.4,1.9,4.3,4.3,4.3s4.3-1.9,4.3-4.3S109.2,202.5,106.8,202.5L106.8,202.5
						L106.8,202.5z M106.8,210.1c-1.8,0-3.3-1.5-3.3-3.3s1.5-3.3,3.3-3.3s3.3,1.5,3.3,3.3S108.6,210.1,106.8,210.1L106.8,210.1
						L106.8,210.1z"/>
				</g>
			</g>
		</g>
	</g>
</g>
</svg>
