<?xml version="1.0" encoding="utf-8"?>
<!-- Generator: Adobe Illustrator 19.2.1, SVG Export Plug-In . SVG Version: 6.00 Build 0)  -->
<svg version="1.1" id="Layer_1" xmlns="http://www.w3.org/2000/svg" xmlns:xlink="http://www.w3.org/1999/xlink" x="0px" y="0px"
	 viewBox="0 0 39.7 39.7" style="enable-background:new 0 0 39.7 39.7;" xml:space="preserve">
<style type="text/css">
	.st0{fill:none;stroke:#1E1E1C;stroke-miterlimit:10;}
	.st1{fill:#1E1E1C;}
</style>
<path class="st0" d="M19.8,19.8C29.2,23.4,37,27.3,37,39.7"/>
<path class="st0" d="M19.8,19.8C10.5,16.3,2.7,12.4,2.7,0"/>
<g>
	<path class="st1" d="M17.1,20.4c-8.4,3.4-15,7.8-15,19.3h1c0-11.3,6.8-15.4,15.3-18.7C18,20.7,17.6,20.6,17.1,20.4z"/>
	<path class="st1" d="M22.6,19.3c8.4-3.4,15-7.8,15-19.3h-1c0,11.3-6.8,15.4-15.3,18.7C21.7,18.9,22.1,19.1,22.6,19.3z"/>
</g>
</svg>
